Normalized EMG Linear Envelopes
nRows=117
nColumns=4

endheader
time	 med_gas_r	  soleus_r	 tib_ant_r	
4	 -0.002155	  0.015071	  0.001225	
4.0625	  0.018594	  0.023731	  0.002019	
4.125	  0.064932	  0.046723	  0.003670	
4.1875	  0.141267	  0.088734	  0.006305	
4.25	  0.232830	  0.145769	  0.009569	
4.3125	  0.316135	  0.207675	  0.013124	
4.375	  0.394924	  0.271468	  0.017525	
4.4375	  0.475199	  0.329599	  0.022808	
4.5	  0.545919	  0.381631	  0.028170	
4.5625	  0.594514	  0.421884	  0.032439	
4.625	  0.614566	  0.449522	  0.035912	
4.6875	  0.619169	  0.471293	  0.039538	
4.75	  0.634788	  0.488165	  0.043577	
4.8125	  0.655953	  0.502570	  0.046983	
4.875	  0.655653	  0.507392	  0.048637	
4.9375	  0.629727	  0.509377	  0.049456	
5	  0.593977	  0.518583	  0.050280	
5.0625	  0.575218	  0.535000	  0.050888	
5.125	  0.580499	  0.543520	  0.050864	
5.1875	  0.597358	  0.546546	  0.051269	
5.25	  0.615300	  0.558337	  0.052885	
5.3125	  0.629213	  0.574569	  0.055205	
5.375	  0.635674	  0.586782	  0.057006	
5.4375	  0.624913	  0.586337	  0.057548	
5.5	  0.616825	  0.564740	  0.058372	
5.5625	  0.624920	  0.535497	  0.060740	
5.625	  0.638838	  0.514767	  0.062467	
5.6875	  0.648434	  0.503225	  0.063045	
5.75	  0.653686	  0.502045	  0.063399	
5.8125	  0.642194	  0.509646	  0.063234	
5.875	  0.604517	  0.514152	  0.062732	
5.9375	  0.563095	  0.520833	  0.062053	
6	  0.550299	  0.533584	  0.061597	
6.0625	  0.568593	  0.546369	  0.061922	
6.125	  0.594258	  0.558011	  0.062440	
6.1875	  0.612335	  0.568587	  0.064051	
6.25	  0.606652	  0.576311	  0.066856	
6.3125	  0.583750	  0.590384	  0.070221	
6.375	  0.561299	  0.610358	  0.073209	
6.4375	  0.557210	  0.621276	  0.073658	
6.5	  0.573044	  0.618592	  0.072593	
6.5625	  0.591647	  0.603760	  0.071211	
6.625	  0.604293	  0.566316	  0.070299	
6.6875	  0.611662	  0.520368	  0.069311	
6.75	  0.615259	  0.479218	  0.066960	
6.8125	  0.606411	  0.442407	  0.063231	
6.875	  0.585884	  0.410146	  0.058866	
6.9375	  0.559457	  0.387650	  0.056507	
7	  0.526335	  0.380524	  0.056201	
7.0625	  0.500885	  0.381960	  0.055274	
7.125	  0.482098	  0.386341	  0.052225	
7.1875	  0.468518	  0.396944	  0.049550	
7.25	  0.467541	  0.403911	  0.049419	
7.3125	  0.481729	  0.402990	  0.051278	
7.375	  0.501262	  0.404513	  0.052986	
7.4375	  0.519936	  0.406525	  0.053732	
7.5	  0.530080	  0.409780	  0.053608	
7.5625	  0.528571	  0.407262	  0.052508	
7.625	  0.523205	  0.400663	  0.050932	
7.6875	  0.517090	  0.389490	  0.049620	
7.75	  0.506999	  0.385060	  0.048609	
7.8125	  0.505081	  0.394767	  0.048445	
7.875	  0.515566	  0.411588	  0.050032	
7.9375	  0.525524	  0.426839	  0.052766	
8	  0.525642	  0.435708	  0.055402	
8.0625	  0.516584	  0.432812	  0.057710	
8.125	  0.508543	  0.427301	  0.059060	
8.1875	  0.508877	  0.425590	  0.058734	
8.25	  0.509465	  0.420314	  0.055971	
8.3125	  0.502995	  0.411104	  0.052211	
8.375	  0.497000	  0.396377	  0.050199	
8.4375	  0.484815	  0.372757	  0.050348	
8.5	  0.454531	  0.338076	  0.050865	
8.5625	  0.419477	  0.299364	  0.049764	
8.625	  0.396274	  0.274638	  0.047278	
8.6875	  0.384590	  0.270210	  0.044412	
8.75	  0.388634	  0.286841	  0.045170	
8.8125	  0.397897	  0.306944	  0.049790	
8.875	  0.378406	  0.292604	  0.056817	
8.9375	  0.322686	  0.237026	  0.066633	
9	  0.248908	  0.158740	  0.077855	
9.0625	  0.183879	  0.094197	  0.082460	
9.125	  0.135558	  0.056810	  0.078971	
9.1875	  0.098551	  0.039381	  0.066725	
9.25	  0.066258	  0.030584	  0.048602	
9.3125	  0.037522	  0.025179	  0.033995	
9.375	  0.016924	  0.022236	  0.026565	
9.4375	  0.005823	  0.021010	  0.026091	
9.5	  0.001639	  0.020396	  0.027319	
9.5625	  0.001038	  0.019775	  0.025724	
9.625	  0.001716	  0.019469	  0.020439	
9.6875	  0.002625	  0.020127	  0.014373	
9.75	  0.003313	  0.022111	  0.009632	
9.8125	  0.003615	  0.025262	  0.006002	
9.875	  0.003629	  0.028006	  0.003532	
9.9375	  0.003537	  0.027333	  0.002288	
10	  0.003373	  0.024434	  0.001887	
10.0625	  0.003203	  0.021784	  0.001884	
10.125	  0.003115	  0.019981	  0.001968	
10.1875	  0.003075	  0.018982	  0.001998	
10.25	  0.003018	  0.018612	  0.001955	
10.3125	  0.002924	  0.018563	  0.001870	
10.375	  0.002814	  0.018594	  0.001771	
10.4375	  0.002703	  0.018644	  0.001684	
10.5	  0.002587	  0.018757	  0.001605	
10.5625	  0.002524	  0.018948	  0.001541	
10.625	  0.002530	  0.019210	  0.001491	
10.6875	  0.002580	  0.019469	  0.001472	
10.75	  0.002638	  0.019745	  0.001511	
10.8125	  0.002760	  0.020094	  0.001639	
10.875	  0.002970	  0.020710	  0.001849	
10.9375	  0.003269	  0.021850	  0.002115	
11	  0.003588	  0.023386	  0.002397	
11.0625	  0.003748	  0.024717	  0.002637	
11.125	  0.003709	  0.025381	  0.002739	
11.1875	  0.003558	  0.024980	  0.002650	
11.25	  0.003378	  0.024196	  0.002386	
